<?xml version="1.0" encoding="UTF-8" standalone="no"?><!-- Generator: Gravit.io --><svg xmlns="http://www.w3.org/2000/svg" xmlns:xlink="http://www.w3.org/1999/xlink" style="isolation:isolate" viewBox="0 0 400 500" width="400pt" height="500pt"><defs><clipPath id="_clipPath_7RFBf85LZk2NjNHfADI1ZbFN9kYMXziw"><rect width="400" height="500"/></clipPath></defs><g clip-path="url(#_clipPath_7RFBf85LZk2NjNHfADI1ZbFN9kYMXziw)"><g><path d=" M 261.595 276.678 C 286.399 246.947 301.88 203.718 301.88 170.997 C 301.88 113.074 256.019 66 199.587 66 C 143.155 66 97.293 113.074 97.293 170.997 C 97.293 203.718 112.775 246.947 137.578 276.678 C -12.491 328.45 3.24 470.953 9.815 500 L 389.358 500 C 411.748 400.47 352.486 303.931 261.595 276.678 Z  M 110 170.997 C 147.53 24.385 299.165 123.568 288.646 170.997 C 288.646 220.719 248.528 296.926 199.587 296.926 C 150.646 296.926 110 220.719 110 170.997 Z  M 378.038 485.989 L 21.218 485.989 C 10.897 420.291 130.004 292.569 148.398 287.87 C 163.297 301.795 180.609 310.68 199.503 310.68 C 218.397 310.68 235.71 301.795 250.608 287.87 C 272.083 293.337 387.777 423.623 378.038 485.989 Z " fill="rgb(0,0,0)"/></g></g></svg>