<svg width="500" height="600" viewBox="0 0 500 600" fill="none" xmlns="http://www.w3.org/2000/svg">
<g clip-path="url(#clip0)">
<path d="M396.627 412.467C335.413 391.96 309.967 366.459 309.967 366.459L307.918 368.462C289.739 386.011 269.634 396.327 251.318 396.327H249.589C231.274 396.327 211.169 386.011 192.99 368.462L190.94 366.459C190.94 366.459 165.496 391.959 104.281 412.467C13.9164 447.088 41.0495 587.984 41.0233 589.075C43.8694 604.767 45.5283 610.16 46.9737 610.766C137.719 652.2 363.19 652.2 453.936 610.766C455.382 610.16 457.041 604.767 459.887 589.075C459.861 587.984 487.356 447.647 396.627 412.467Z" fill="#010002"/>
<path d="M345.356 232.72L344.598 231.876C339.514 227.102 339.911 227.375 339.911 227.375C339.911 227.375 348.779 181.482 341.668 159.779C330.504 125.119 263.817 101.889 250.442 99.1888C250.444 99.1631 242.307 97.4931 241.787 97.4897C241.787 97.4897 231.267 95.3081 219.073 100.763C211.132 103.896 169.615 123.205 157.83 159.779C150.72 181.482 159.588 227.375 159.588 227.375C159.588 227.375 159.986 227.102 154.9 231.876L154.144 232.72C150.704 236.725 151.553 249.259 155.313 262.299C158.72 275.364 163.161 278.875 164.225 281.934C175.012 333.876 212.518 378.224 250.739 378.224C288.961 378.224 324.486 333.876 335.272 281.934C336.338 278.876 340.778 275.364 344.185 262.299C347.945 249.258 348.894 235.864 345.356 232.72Z" fill="#FFE0BD"/>
</g>
<defs>
<clipPath id="clip0">
<rect width="500" height="600" fill="white"/>
</clipPath>
</defs>
</svg>
